<svg width="260" height="60" viewBox="0 0 260 60" fill="none" xmlns="http://www.w3.org/2000/svg">
  <path d="M33.6 22.4H25.2V27.2H33V29.6H25.2V37.6H22.4V20H33.6V22.4Z" fill="#FFFFFF"/>
  <path d="M43.9 32.8H39.5V37.6H36.7V20H44.3C47.9 20 50.3 22.4 50.3 26.4C50.3 30.2 48.1 32.8 43.9 32.8ZM43.7 22.4H39.5V30.4H43.7C46.3 30.4 47.5 28.8 47.5 26.4C47.5 24 46.3 22.4 43.7 22.4Z" fill="#FFFFFF"/>
  <path d="M66.2 31.6C66.2 35.6 63.2 38 59.4 38C55.6 38 52.6 35.6 52.6 31.6V20H55.4V31.6C55.4 34 57 35.6 59.4 35.6C61.8 35.6 63.4 34 63.4 31.6V20H66.2V31.6Z" fill="#FFFFFF"/>
  <path d="M77.9 27.2H81.9V37.6H79.5L79.1 36C77.9 37.2 76.3 38 74.3 38C70.7 38 68.3 35.6 68.3 31.6V20H71.1V31.6C71.1 34 72.7 35.6 75.1 35.6C77.1 35.6 77.9 34.6 77.9 32.8V27.2Z" fill="#FFFFFF"/>
  <path d="M94.3 20V37.6H91.9L91.5 36C90.3 37.2 88.7 38 86.7 38C83.1 38 80.7 35.6 80.7 31.6V20H83.5V31.6C83.5 34 85.1 35.6 87.5 35.6C89.5 35.6 91.5 34.6 91.5 32.8V20H94.3Z" fill="#FFFFFF"/>
  <path d="M107.6 35.2V37.6H97.2V20H107.2V22.4H100V27.2H106.2V29.6H100V35.2H107.6Z" fill="#FFFFFF"/>
  <path d="M122.5 31.6C122.5 35.6 119.5 38 115.7 38C111.9 38 108.9 35.6 108.9 31.6V20H111.7V31.6C111.7 34 113.3 35.6 115.7 35.6C118.1 35.6 119.7 34 119.7 31.6V20H122.5V31.6Z" fill="#FFFFFF"/>
  <path d="M131.2 36C129.8 37.3 128 38 126 38C122.2 38 119.2 35.6 119.2 31.6C119.2 27.6 122.2 25.2 126 25.2C128 25.2 129.8 25.9 131.2 27.2V25.6H134V37.6H131.2V36ZM126.4 35.6C128.8 35.6 131.2 34.2 131.2 31.6C131.2 29 128.8 27.6 126.4 27.6C124 27.6 122 29 122 31.6C122 34.2 124 35.6 126.4 35.6Z" fill="#2C7CD6"/>
  <path d="M137.1 25.6H139.9V37.6H137.1V25.6ZM137.1 20H139.9V22.8H137.1V20Z" fill="#FCBF05"/>
  <path d="M152.2 25.6V37.6H149.8L149.4 36C148.2 37.2 146.6 38 144.6 38C141 38 138.6 35.6 138.6 31.6V25.6H141.4V31.6C141.4 34 143 35.6 145.4 35.6C147.4 35.6 149.4 34.6 149.4 32.8V25.6H152.2Z" fill="#EB4335"/>
  <path d="M161.1 25.2L160.7 27.8C160.1 27.6 159.5 27.6 158.9 27.6C156.9 27.6 155.5 28.6 155.5 30.4V37.6H152.7V25.6H155.1L155.5 27.2C156.1 26 157.3 25.2 159.5 25.2C160.1 25.2 160.7 25.2 161.1 25.2Z" fill="#34A853"/>
</svg> 